<svg width="17" height="17" viewBox="0 0 17 17" fill="none" xmlns="http://www.w3.org/2000/svg">
<g clip-path="url(#clip0_98_857)">
<path d="M13.566 0H3.434C1.53638 0 0 1.53638 0 3.434V13.5681C0 15.4636 1.53638 17 3.434 17H13.5681C15.4636 17 17.0021 15.4636 17.0021 13.566V3.434C17 1.53638 15.4636 0 13.566 0Z" fill="url(#paint0_linear_98_857)"/>
<path d="M8.42776 3.90556L8.77201 3.31056C8.98451 2.93869 9.45838 2.81331 9.83026 3.02581C10.2021 3.23831 10.3275 3.71219 10.115 4.08406L6.79788 9.82581H9.19701C9.97476 9.82581 10.4104 10.7396 10.0725 11.3728H3.03876C2.60951 11.3728 2.26526 11.0286 2.26526 10.5993C2.26526 10.1701 2.60951 9.82581 3.03876 9.82581H5.01076L7.53526 5.45044L6.74688 4.08194C6.53438 3.71006 6.65976 3.24044 7.03163 3.02369C7.40351 2.81119 7.87313 2.93656 8.08988 3.30844L8.42776 3.90556ZM5.44426 12.1697L4.70051 13.4596C4.48801 13.8314 4.01413 13.9568 3.64226 13.7443C3.27038 13.5318 3.14501 13.0579 3.35751 12.6861L3.91001 11.7298C4.53476 11.5364 5.04263 11.6852 5.44426 12.1697ZM11.849 9.83006H13.8614C14.2906 9.83006 14.6349 10.1743 14.6349 10.6036C14.6349 11.0328 14.2906 11.3771 13.8614 11.3771H12.7436L13.498 12.6861C13.7105 13.0579 13.5851 13.5276 13.2133 13.7443C12.8414 13.9568 12.3718 13.8314 12.155 13.4596C10.8843 11.2559 9.93013 9.60694 9.29688 8.50831C8.64876 7.39056 9.11201 6.26856 9.56888 5.88819C10.0768 6.75944 10.8354 8.07481 11.849 9.83006Z" fill="white"/>
</g>
<defs>
<linearGradient id="paint0_linear_98_857" x1="8.50106" y1="0" x2="8.50106" y2="17" gradientUnits="userSpaceOnUse">
<stop stop-color="#18BFFB"/>
<stop offset="1" stop-color="#2072F3"/>
</linearGradient>
<clipPath id="clip0_98_857">
<rect width="17" height="17" fill="white"/>
</clipPath>
</defs>
</svg>
