<svg width="16" height="18" viewBox="0 0 16 18" fill="none" xmlns="http://www.w3.org/2000/svg">
<path d="M7.45951 8.41797L0.0662231 16.1638C0.14924 16.4581 0.298433 16.7294 0.502397 16.9572C0.706361 17.1849 0.959697 17.363 1.24304 17.4778C1.52638 17.5926 1.83222 17.6412 2.13719 17.6197C2.44215 17.5982 2.73817 17.5072 3.0026 17.3538L11.3214 12.6159L7.45951 8.41797Z" fill="#EA4335"/>
<path d="M14.9353 7.10095L11.3379 5.04053L7.28864 8.59393L11.3544 12.6046L14.9243 10.5662C15.2406 10.4006 15.5055 10.1516 15.6903 9.84619C15.8752 9.54077 15.9729 9.19058 15.9729 8.83358C15.9729 8.47658 15.8752 8.12639 15.6903 7.82097C15.5055 7.51555 15.2406 7.26654 14.9243 7.10095H14.9353Z" fill="#FBBC04"/>
<path d="M0.0661316 1.46533C0.0214407 1.63055 -0.000795768 1.80102 2.17456e-05 1.97217V15.6569C0.000468747 15.828 0.0226838 15.9983 0.0661316 16.1638L7.71284 8.61621L0.0661316 1.46533Z" fill="#4285F4"/>
<path d="M7.5146 8.81465L11.3379 5.04088L3.03015 0.280971C2.71761 0.0979238 2.36213 0.000977239 1.99994 3.94022e-06C1.5625 -0.000862929 1.13678 0.141329 0.787662 0.404905C0.438549 0.66848 0.185196 1.03898 0.0662231 1.45993L7.5146 8.81465Z" fill="#34A853"/>
</svg>
