<svg width="18" height="15" viewBox="0 0 18 15" fill="none" xmlns="http://www.w3.org/2000/svg">
<path d="M1 6.48151C0.447717 6.48151 4.82824e-08 6.9375 0 7.49998C-4.82823e-08 8.06246 0.447715 8.51845 1 8.51845V7.49998V6.48151ZM17.7071 8.22014C18.0976 7.82241 18.0976 7.17754 17.7071 6.77981L11.3432 0.298303C10.9526 -0.0994343 10.3195 -0.0994344 9.92895 0.298303C9.53843 0.69604 9.53843 1.3409 9.92895 1.73864L15.5858 7.49998L9.92895 13.2613C9.53843 13.659 9.53843 14.3039 9.92895 14.7017C10.3195 15.0994 10.9526 15.0994 11.3432 14.7017L17.7071 8.22014ZM1 7.49998V8.51845H17V7.49998V6.48151H1V7.49998Z" fill="#FF566D"/>
</svg>
